<?xml version="1.0" encoding="UTF-8"?>
<svg id="Layer_1" data-name="Layer 1" xmlns="http://www.w3.org/2000/svg" viewBox="0 0 532 532">
  <defs>
    <style>
      .cls-1 {
        fill: #bfbf8a;
        stroke-width: 0px;
      }
    </style>
  </defs>
  <path class="cls-1" d="M280.85,407.65c0,23.5.05,47-.06,70.5-.02,3.59.87,5.99,3.94,8.35,8.77,6.73,11.57,17.69,7.64,27.28-4.06,9.9-12.84,15.17-23.88,14.35-9.54-.72-17.72-7.83-20.09-17.49-2.31-9.39,1.76-20.23,9.98-25.26,2.85-1.74,3.7-3.7,3.69-6.85-.1-47.5-.14-95-.04-142.49,0-4.34-1.27-5.83-5.69-5.72-12.8.31-25.62.33-38.42.2-3.94-.04-5.11,1.28-5.09,5.21.18,31.33.1,62.66.36,93.99.02,2.19,1.61,4.99,3.35,6.44,12.45,10.37,14.13,25.69,3.69,36.28-9.04,9.17-23.96,9.45-32.8.62-9.3-9.3-9.89-24.44-.06-33.03,5.68-4.96,6.63-10.12,6.57-16.91-.24-28.66-.05-57.33,0-85.99.01-6.8.03-6.77-6.95-6.76-18.63.03-37.26.17-55.89-.08-4.87-.06-6.16,1.49-6.1,6.27.28,22,.29,44,.11,65.99-.04,4.85,1.1,8.23,5.02,11.53,9.92,8.35,10.82,21.89,2.8,31.72-8.14,9.98-21.73,11.57-32.15,3.76-11.54-8.66-11.81-26.69-.01-35.91,4.1-3.2,5.31-6.44,5.27-11.33-.19-22.33-.15-44.66.04-66.99.04-4.23-1.24-6.14-5.47-7.17C28.59,310.57-11.51,231.6,14.59,162.62c19.78-52.27,59.62-80.19,115.14-85.12,6.46-.57,10.11-2.43,13.52-8.25C167.59,27.74,204.73,6,252.11,3.96c55.59-2.39,98.45,20.87,126.64,69.61,1.73,2.98,3.7,3.67,6.86,3.42,59.91-4.7,114.83,32.09,133.45,89.32,23.31,71.66-19.79,146.59-93.42,162.18-5.99,1.27-12.19,1.73-18.31,2.05-3.57.18-4.97,1.14-4.94,4.92.16,19.33.15,38.66.04,58-.02,3.44,1.12,4.73,4.59,4.68,10.98-.14,21.96.04,32.93-.11,3.89-.05,5.41,1.3,5.06,5.28-.32,3.64.24,7.37-.24,10.97-.18,1.33-2.13,3.26-3.47,3.44-3.6.48-7.3.17-10.96.17-35.43-.01-70.86-.12-106.29.06-5,.03-6.62-1.41-6.58-6.49.17-25-.12-50,.06-74.99.03-4.85-1.42-6.38-6.23-6.15-8.3.39-16.64.38-24.94.14-4.35-.13-5.71,1.28-5.68,5.7.2,23.83.09,47.66.09,71.5.03,0,.05,0,.08,0ZM264.52,294.63c0-.16,0-.31,0-.47,45.57,0,91.15.52,136.71-.15,40.53-.6,65.65-22.88,78.68-53.97,25.94-61.9-19.95-118.47-73.14-125.21-15.92-2.02-32.2-1.33-48.31-1.51-4.29-.05-6.08-1.55-7.34-5.53-9.11-28.84-28.04-48.62-55.92-59.91-52.37-21.21-111.84,7.11-127.59,60.81-.96,3.28-2.48,4.63-5.9,4.61-8.81-.06-17.64-.11-26.44.3-31.79,1.49-56.91,15.85-74.64,41.83-19.08,27.96-22.83,58.6-6.91,89,16.4,31.32,42.28,50.1,79.09,50.18,43.91.1,87.81.02,131.72.02ZM382.95,364.45h-.12c0-9.82-.1-19.64.05-29.46.05-3.44-1.17-4.72-4.62-4.68-12.29.13-24.58.14-36.88.02-3.46-.04-4.65,1.22-4.63,4.67.09,19.47.09,38.94-.07,58.41-.03,3.79,1.43,4.89,4.99,4.84,12.12-.17,24.25-.26,36.38-.07,4.08.06,5.05-1.5,4.97-5.27-.21-9.48-.07-18.97-.07-28.46Z"/>
  <g>
    <path class="cls-1" d="M135.55,252.58c-6.96-2.57-14.08-6.05-21.35-10.46-.75-.44-1.51-.67-2.27-.67-1.97,0-3.33.91-4.08,2.73l-10,19.98c-.46.92-.69,1.75-.69,2.5,0,1.53.83,2.74,2.5,3.65,15.3,8.33,28.03,13.03,38.19,14.08,4.23.31,7.42.46,9.54.46,9.08,0,17.34-1.44,24.77-4.31,6.96-2.73,12.55-7.21,16.79-13.42,4.25-6.21,7.21-13.63,8.88-22.27v-.23c.15-1.05.23-2.72.23-5,0-16.8-9.39-30.89-28.17-42.25l-7.06-4.33c-3.47-2.11-6.5-4.46-9.08-7.04-4.24-3.79-6.35-8.19-6.35-13.19,0-3.03.76-5.98,2.27-8.85,1.82-4.69,4.92-6.67,9.31-5.92h.23c1.67.16,2.73,1.6,3.19,4.33.44,5.6.67,10.97.67,16.13,0,3.03,1.51,4.54,4.54,4.54h26.38c3.03,0,4.54-1.44,4.54-4.31.3-4.84.46-9.01.46-12.5,0-3.03-.16-5.76-.46-8.19-.61-7.42-2.58-13.24-5.92-17.48-6.67-8.19-17.12-12.29-31.35-12.29-3.95,0-7.73.23-11.35.69-16.67,1.97-28.79,9.63-36.38,22.96-5.45,9.08-8.17,18.48-8.17,28.19,0,3.93.45,7.95,1.35,12.04,1.51,6.36,4.32,11.43,8.42,15.21,0,0,.03.04.1.13.08.07.13.1.13.1,7.42,6.22,11.88,9.71,13.4,10.46l.46.23,4.54,2.73c7.73,4.7,12.73,7.95,15,9.77,4.69,3.49,7.04,7.89,7.04,13.19,0,3.33-1.02,5.91-3.06,7.73-2.04,1.81-4.73,2.71-8.06,2.71-2.74,0-5.77-.6-9.1-1.81ZM172.38,154.87h.9v.46h-.9v-.46ZM178.28,162.6c-.16.14-.34.21-.56.21s-.27-.15-.13-.44l.1-.1.13-.13.23-.46s.03.04.1.13c.08.07.13.1.13.1l.46.23-.46.46ZM173.28,171.69c0,.31-.08.46-.23.46h-1.13c0-.61.38-.92,1.13-.92l.23.46ZM167.82,211.23c.3.31.46.68.46,1.13h-1.81s-.08-.26-.23-.79c-.16-.53-.08-1.17.23-1.92h1.35c.15.14.23.52.23,1.13l-.23.46ZM158.05,211.23v-.92h2.06v.92h-2.06ZM170.55,212.58l-.46.23v.23l-1.81.92c-.6-.92-.9-1.38-.9-1.38.29-.15.74-.23,1.35-.23h.92l.9.23ZM164.19,220.31c.3.31.46.61.46.92l-.46.23-.46-.23h-.46v-1.6l.46.46.46.23ZM176.46,223.73l-.46.23h-1.35c0-.61.45-1.15,1.35-1.6l.92.92v.46h-.46ZM173.05,227.35v-.67l2.04.23v.9l-2.04-.46ZM185.55,231.69c.15,0,.23.15.23.44,0,.92-.45,1.38-1.35,1.38s-1.53-.38-1.83-1.15l.46-1.13h2.04c0,.16.07.23.23.23l.23.23ZM175.32,232.58l-.9-.46.67-.67.92.23-.69.9ZM178.73,238.04c0,.31.23.46.69.46,0,.31-.08.46-.23.46v.44c-.16,0-.23.08-.23.23h-1.58l-.23-.23h-.23l-.46-.21.46-1.6h.9l.92.46ZM188.05,238.73l.69.23-.69.44-.46.23c-.45.46-.82.69-1.13.69v-.92c-.16-.29-.08-.59.23-.9h.9l.46.23ZM181.01,242.81c-.61,0-1.1-.15-1.48-.46-.38-.3-.49-.68-.33-1.13.15,0,.38-.03.67-.1.3-.08.76-.13,1.38-.13l.46-.23c.15-.15.45-.23.9-.23l.23,1.15-.9.67-.92.46ZM179.88,246.46c1.21,1.21,1.81,1.89,1.81,2.04,0,.31-.08.54-.23.69v.44h-.46l-.46.23h-.67c-.46,0-.84-.15-1.15-.46h-.69s-.27-.03-.79-.1c-.53-.07-1.25-.18-2.17-.33-.29-.3-.44-.53-.44-.69l-.23-.23v-.92h.67c.76,0,1.38.08,1.83.23.3.16.68.23,1.13.23h.23c.3,0,.53-.07.69-.23l.46-.23c0-.15.15-.38.46-.67ZM186.69,248.27v.46h-1.81c.44-.46.67-.92.67-1.38h1.6l-.46.92ZM184.19,250.31v-1.35h1.13v1.35h-1.13ZM179.19,251.46c0,.29-.39.67-1.15,1.13l-1.58.92h-.92c-.91,0-1.51-.15-1.81-.46v-.46c0-.46.45-.91,1.35-1.35.46,0,.76-.07.92-.23.76-.46,1.07-.61.92-.46h2.27v.92ZM185.78,253.04c.46.46.69.77.69.92,0,.75-.39,1.13-1.15,1.13l-.9.69c-.61-.76-.92-1.36-.92-1.81,0-.92.38-1.45,1.15-1.6l1.13.69ZM179.42,254.85c-.77.16-1.6.16-2.5,0v-.9l.9-.69h1.38c.15,0,.23.23.23.69v.9ZM133.05,255.08v-.69h1.38v.69h-1.38ZM174.65,258.04l-.46.46h-.46c0,.16-.16.23-.46.23v-.92c0-.3.15-.61.46-.92.15,0,.26.04.33.13.08.07.13.1.13.1l.46.92ZM166.92,260.77c.3.16.46.6.46,1.35-.61,0-1.22-.15-1.83-.46.15,0,.26-.03.33-.1.08-.07.13-.1.13-.1,0-.15.15-.23.46-.23v-.23c0-.15.15-.23.46-.23ZM179.42,261.23c.15.16.23.38.23.67-.46,0-1.37-.22-2.73-.67l2.5-.46v.46ZM137.61,262.12l-.92-.46.69-.67.9.23-.67.9ZM168.28,263.5c.61,0,.99.08,1.15.23l1.13.23c0,.75-.6,1.13-1.81,1.13,0-.15-.31-.23-.92-.23l.46-1.35ZM163.73,265.08v-1.13h.92v1.13h-.92ZM143.05,269.17v-.67h1.6v.67h-1.6ZM167.82,269.85c-.29-.15-.44-.38-.44-.69,0-.44.15-.67.44-.67h1.83l-1.83,1.35Z"/>
    <path class="cls-1" d="M311.9,126.69c1.51,0,2.72.46,3.63,1.38.92.91,1.38,2.04,1.38,3.4l-.69,27.04c-.29,2.88-1.73,4.39-4.31,4.54l-62.5,6.6-1.58,18.85,46.81-2.5v22.27h.92v-22.27c1.21,0,2.3.46,3.29,1.38.98.91,1.48,1.96,1.48,3.17v23.65c0,2.57-1.29,4.08-3.88,4.54l-49.75,6.58-1.15,18.88,60.67-1.83c1.38,0,2.51.46,3.42,1.38.92.91,1.38,1.96,1.38,3.17v28.65c0,2.88-1.45,4.39-4.33,4.54l-95.67,5c-1.36,0-2.49-.42-3.4-1.25-.92-.83-1.38-2.01-1.38-3.52.31-22.42.99-45.75,2.04-70,1.05-22.26,2.95-47.33,5.69-75.21.46-2.73,1.97-4.1,4.54-4.1l93.4-4.31ZM247.13,131.69h.46v-.69h-.46v.69ZM261.9,133.06c-.16.14-.2.25-.13.33.08.07.28.1.58.1-.31,0-.46-.15-.46-.44ZM266.23,136.92c.29-.3.44-.61.44-.92,0-.59-.45-.9-1.35-.9s-1.58.3-2.04.9l-.69.92c.46-.3.69-.61.69-.92l1.13-.23c.92.16,1.38.54,1.38,1.15v.92c0-.3.15-.61.46-.92ZM300.32,135.33h-.46v.67h.46v-.67ZM235.78,136.69h4.77v-.69h-4.77v.69ZM252.13,136h-3.17v.23h-.46c-.77.31-1.15.54-1.15.69h1.6l.23-.23h2.94v-.69ZM244.63,136.92h.69v-.46h-.69v.46ZM282.36,136.92h-1.81v.92h1.81v-.92ZM255.32,137.83c-.31,0-.46.38-.46,1.13,0,0,.3-.3.92-.9.46-.46.3-.53-.46-.23ZM270.32,138.5h-.92v.46h.92v-.46ZM233.73,142.37l.23.9v.46h.9c0-.15.15-.38.46-.69.3-.29.46-.44.46-.44l-2.04-.23ZM261.46,145.54c-.77-.29-1.15-.59-1.15-.9v-.23l1.15-1.15-.92.46h-.46c-.16,0-.27.04-.35.13-.07.07-.18.1-.33.1h-.44c-.77.31-1.38.91-1.83,1.81l.46.46h2.73c.15,0,.26-.03.33-.1l.13-.13h.23l.46-.46ZM269.17,146.23h.23l.23.23.23-.69h-.69v.46ZM256.23,147.83l-.46-1.38c-1.21.46-1.81.92-1.81,1.38.44.14.74.14.9,0h1.38ZM266.23,149.65c0-.3-.39-.76-1.15-1.38l-.69,1.38h1.83ZM275.55,149.87c0-.15-.16-.38-.46-.69l-.46-.46c-1.21.46-1.81.92-1.81,1.38l2.73-.23ZM260.32,150.1c-.91-.46-1.58-.69-2.04-.69-.77,0-1.15.38-1.15,1.13l1.15.69.69.23h.21c.3,0,.46-.23.46-.69l.69-.67ZM269.17,151.92c.3.31.69.31,1.15,0,0-.92-.31-1.44-.92-1.58l-.9.21-.92.23.46,1.15h1.13ZM221.46,151.23h-.23l-.46.23.46.23.23-.46ZM263.73,153.27c.44,0,.67-.3.67-.9s-.38-.92-1.13-.92l-.46.23h-.23l-.23.23c-.31.31-.46.61-.46.92l.23.44h1.6ZM297.59,151.69h-.46v1.15h.46v-1.15ZM263.28,162.81h-.46v.69h.46v-.69ZM244.86,163.5c-.31,0-.46.23-.46.69h.46l.23-.23c-.16,0-.23-.15-.23-.46ZM243.51,174.65l-.46.46,1.15.21c.14-.14.14-.51,0-1.13-.16,0-.39.16-.69.46ZM244.63,179.19l.23-.23-1.13-.23v.23l.9.23ZM246.01,188.27h1.13v-1.13h-1.13v1.13ZM246.69,191.23c-.46,0-.77-.07-.92-.23l-.92-.23-.23.23c-.45.16-.67.46-.67.92,0,.75.6,1.13,1.81,1.13.46,0,.76-.07.92-.23v-1.58ZM263.96,192.58h.21v-.21l-.21.21ZM296.44,195.54c.46,0,.84.08,1.15.23l1.13.23.92-1.13v-1.83c-.16-.15-.42-.3-.79-.44-.38-.15-.72-.23-1.02-.23l-1.38.9v2.27ZM265.09,192.81l.46-.23h-.46v.23ZM259.17,195.08l1.15.92c.3-.15.49-.42.56-.79.08-.38-.03-.64-.33-.79l-1.38.67ZM265.09,195.31l.92.46.46-1.35h-.92l-.46.9ZM251.69,196.92c.9-.3.9-.76,0-1.38v1.38ZM248.28,198.27l.92.92,1.13.23.23-.23h.46v-1.15c-.61,0-1.07-.15-1.38-.46l-.44.23-.13.13-.1.1-.69.23ZM259.17,198.04l.46.92h1.6l-.69-.46-.92-.69-.46.23ZM244.19,198.73c-.16-.15-.46-.3-.92-.46-.46-.15-.84-.23-1.15-.23,0,.31.23.61.69.92.3.31.98.46,2.04.46h.69v-.69h-1.35ZM258.73,201.46h1.81c.3-.15.46-.38.46-.69v-.92h-1.83l-.21.92-.23.69ZM242.59,202.81c0,.16.03.27.1.35.08.07.2.03.35-.13l.69-.23-.46-.23h-.23c-.31,0-.46.08-.46.23ZM239.86,207.15c.76,0,1.3-.15,1.6-.46-.31,0-.61-.15-.92-.46l-.23-.23h-1.13c-.46.46-.69.91-.69,1.35l1.35-.21ZM243.05,208.27c-.77,0-1.83-.15-3.19-.46l-.67.46.67.92c.3-.76.69-.99,1.15-.69.9,0,1.58-.07,2.04-.23ZM233.28,208.27c-.46.16-.69.46-.69.92l.69.46.92-.23c0-.3.22-.53.67-.69l-.67-.23-.92-.23ZM295.09,214.42l.92-1.15.44-.92-.44-1.58c-.16-.15-.46-.83-.92-2.04v5.69ZM242.82,212.35c0-.29.46-1.05,1.38-2.27l-.92-.23h-.92c-.45,0-.9.16-1.35.46l-1.81.69c.44.16.85.31,1.23.46.39.16.66.31.81.46-.31.75-.39,1.28-.23,1.58l2.04-.46-.23-.69ZM236.69,211.92c.44.29.82.29,1.13,0l-.23-.23-.46-.23-.44.23v.23ZM243.96,211.69c.15.45.34.74.56.9.22.16.56.23,1.02.23.15,0,.68-.15,1.58-.46l-.67-.67h-2.5ZM237.13,212.35c-.91.46-1.13.84-.67,1.15l.23.92c.59,0,1.05-.15,1.35-.46,0-.61-.31-1.15-.92-1.6ZM247.36,214.65h-1.13c-.46,0-.69.15-.69.44,0,.31-.16.46-.46.46,0-.75-.23-1.2-.69-1.35h-1.35c0,.31.15.46.46.46l.69.67-1.6.69-1.13.92c.15.16.34.23.56.23s.41.07.56.21h1.81c.61,0,1.59-.3,2.96-.9v-1.81ZM239.19,215.54c-.46,0-.84.27-1.15.81-.31.53-.46,1.02-.46,1.46v1.15c.76.6,1.44.9,2.04.9h.69l.69-.44v-2.96l-.92-.69-.9-.23ZM235.55,216.69c-.16,0-.39.11-.69.33-.29.22-.44.41-.44.56.59.16,1.13.16,1.58,0l-.46-.9ZM286.01,218.04h2.73v-.69h-2.73v.69ZM246.23,218.73c.3,0,.46-.23.46-.69h-1.38l-.46.69h1.38ZM233.73,218.96c-.77.16-1.15.45-1.15.9h1.15c.15-.15.15-.45,0-.9ZM244.19,220.31c.29.16.74.23,1.35.23,0-.46-.31-.83-.92-1.13l-.44.9ZM237.59,220.31c-.6.61-.9,1.07-.9,1.38l2.04.23.46-.92c-.31-.3-.46-.53-.46-.69h-1.15ZM241.46,222.12l-.23-1.35c-.77,0-1.15.31-1.15.92v.9l1.38-.46ZM245.78,222.58c0-.3-.16-.46-.46-.46l-.46-.44c-.31.16-.99.23-2.04.23l-.92.21-.44.23,1.13.92c.92-.3,1.45-.46,1.6-.46l1.58-.23ZM242.13,224.85l.69-.44-1.81-.46v.9h1.13ZM240.55,224.85c-.61-.29-1.22-.44-1.81-.44l.46.9c.59,0,1.05-.15,1.35-.46ZM237.82,226.23c0,.16-.16.39-.46.69l2.5.21c.3,0,.46-.22.46-.67l-2.5-.23ZM235.55,227.81c.3.46.76.69,1.38.69l-.92-1.81-1.58.23,1.13.9ZM239.4,229.85c-.29-.59-.36-.97-.21-1.13.14-.46.14-.76,0-.92l-.69.69c-.16,0-.23.16-.23.46v.9h1.13ZM243.96,229.42c.75,0,1.13-.3,1.13-.92h-1.13v.92ZM231.92,228.73c-.46.16-.69.39-.69.69l1.35.44c0-.29.07-.51.23-.67l.23-.23-1.13-.23ZM238.28,230.31v.92h.69v-.92h-.69ZM239.4,230.77c0,.31.07.46.23.46l.23.46,1.6-.46c-.16,0-.23-.15-.23-.46v-.23c-.31,0-.54.04-.69.13-.16.07-.31.1-.46.1h-.69ZM243.05,232.81h-1.35v.92h1.35v-.92ZM230.09,234.19c-.31.45-.23.9.23,1.35.76-.3,1.15-.76,1.15-1.35h-1.38ZM234.86,235.77l.46.23c.3,0,.53-.07.69-.23l-.23-1.15h-.46l-.13.13-.1.1h-.46v.92h.23ZM230.09,239.4c.61,0,.99-.07,1.15-.21,0-.15.03-.26.1-.33l.35-.35-.69-.46-1.15.46.23.9ZM236.69,238.96h-1.15v.23l.92.21.23-.44ZM233.05,241.69c.3.29.69.44,1.15.44v-1.35c-.46,0-.84.31-1.15.92ZM253.05,250.31h1.81v-.46h-1.81v.46ZM262.13,250.54l-1.13.69c.44.16.67.45.67.9h1.15c.3-.29.46-.51.46-.67l.23-.46-.46-1.15c0,.16-.08.31-.23.46s-.39.23-.69.23ZM275.09,251.46h.46l.23-.46-.23-.23-.46.69ZM255.78,251h-1.38v.46h1.38v-.46ZM266.23,252.81l.9-.23c0-.15-.08-.23-.23-.23,0,0-.15-.15-.44-.46l-.23.92ZM253.05,253.27l.46.46c.75-.3.9-.61.46-.92-.31,0-.46.08-.46.23h-.46v.23ZM261.01,253.73c-.31-.3-.69-.46-1.15-.46l.46,1.58.1-.1.13-.13c.15,0,.23-.15.23-.44.15,0,.23-.15.23-.46ZM265.32,254.19c-.77.29-1.15.67-1.15,1.13h1.15c0-.3.07-.53.23-.69l-.23-.44ZM233.05,257.58v1.38l.46-.46.92-.92h-1.38ZM237.59,257.58c0,.46.38.69,1.15.69v-.46c0-.15.07-.23.23-.23h-1.38ZM249.4,258.27l.46.9h.46l-.69-.9h-.23ZM271.23,258.96c0,.75.38,1.13,1.13,1.13l.46-.69.23-.44h-1.81ZM263.28,259.4h-.46l-.23.69h.69v-.69ZM256.01,260.77l.1-.1.13-.13-.46-.46h-.46l.46.92.1-.1.13-.13ZM236.23,263.27h-1.81v1.13h1.81v-1.13ZM215.32,268.27c0-.76.23-1.22.69-1.38h-2.96v1.38h2.27ZM298.05,267.81l2.73.46v-.69l-2.27-.69-.46.92ZM230.09,267.35h-2.5v.92h2.5v-.92ZM245.09,268.27v1.13h1.81v-1.13h-1.81ZM257.59,269.17c-.16.31-.23.92-.23,1.83l.23,1.13h3.19l.46-.9c.15-.15.23-.46.23-.92l-1.15-1.15h-2.73ZM222.59,270.31h2.5v-.92h-2.5v.92ZM232.59,275.08c.46-.15.84-.57,1.15-1.25.3-.68.46-1.4.46-2.17,0-.9-.23-1.58-.69-2.04-.31,0-.91.23-1.81.69.59,1.36.9,2.95.9,4.77ZM209.86,271.9c.15.46.57.66,1.25.58.69-.08,1.19-.28,1.48-.58h-2.73ZM219.42,272.81h-.46v-.92h-2.04v.92h2.04v.92h.46v-.92ZM243.05,273.27c-1.21,0-2.04.08-2.5.23l-1.35.46-1.15.21c.3.16.6.43.9.81.3.38.53.72.69,1.02.76-.46,1.52-1.07,2.27-1.83l1.15-.9ZM227.59,275.31c.3-.46.46-.91.46-1.35h-3.85v2.04c1.21,0,2.26.15,3.17.44l.23-1.13ZM269.17,275.08h1.6v-.46h-1.6v.46ZM298.05,278.04c0,.46-.16.69-.46.69.46,0,.91-.23,1.35-.69h-.9ZM224.86,278.5h-1.81v.9h1.81v-.9Z"/>
    <path class="cls-1" d="M434.16,170.1c.46,3.18.69,6.29.69,9.31,0,8.64-1.74,16.82-5.23,24.54-1.97,3.79-4.02,7.13-6.13,10,.44-.76.67-1.67.67-2.73,0-1.21-.08-2.11-.23-2.73-.16-.61-.23-1.36-.23-2.27,0-.76.15-1.15.46-1.15h-.23c0-1.05-.08-1.81-.23-2.27,0-.9.3-1.73.92-2.5-.91-.15-1.21-.53-.92-1.13,0-.61-.07-.99-.21-1.15v15.92c-3.64,5-8.19,9.02-13.65,12.04h-.23c-7.27,3.95-15.37,7.13-24.31,9.54-2.57.92-6.14,1.75-10.69,2.5l-2.04.46-1.81.23h-.23c0-.3-.16-.46-.46-.46-.75,0-1.13.23-1.13.69,0,.16.07.23.23.23l-7.06.9-1.35,40.46c0,3.03-1.52,4.54-4.54,4.54h-27.96c-1.36,0-2.46-.45-3.29-1.35-.83-.92-1.25-2.05-1.25-3.42l.92-17.04.44.46c.46-.15,1.21-.61,2.27-1.38l-.67-.46h-1.15l-.9.69.44-12.04h.69c0-.3-.15-.46-.46-.46l-.23-.23,5-107.48c.3-2.28,1.52-3.65,3.65-4.1,28.03-5.75,43.78-8.85,47.27-9.31.59,0,1.42-.03,2.48-.1,1.07-.08,2.28-.28,3.65-.58l6.15-.21h.23c11.82.6,21.21,4.69,28.17,12.27,6.97,7.57,11.14,17.49,12.5,29.77ZM338.04,152.37v-.69h-.46v.69h.46ZM363.95,203.73c4.84-.61,8.48-1.21,10.9-1.81,7.43-2.43,13.03-5.23,16.81-8.42,2.89-2.42,4.78-5.59,5.69-9.54.15-.76.23-1.9.23-3.42,0-4.39-.99-8.32-2.96-11.81-1.97-3.48-4.77-5.23-8.4-5.23-.92,0-1.6.08-2.06.23l-17.94,3.65-2.27,36.35ZM410.54,164.87v.44h.9v-.44h-.9ZM398.27,166.69c-.16.16-.23.31-.23.46s.07.23.23.23c.15.29.38.44.67.44s.46-.15.46-.44l.46-.23-1.58-.46ZM335.31,168.96v-1.15h-.46v1.15h.46ZM405.08,168.96v-.69h-.69v.69h.69ZM406.43,176.46c0-.76-.6-1.44-1.81-2.04v2.73c.61,0,1.21-.23,1.81-.69ZM406.89,181c.61-.59.92-.97.92-1.13l-.46-1.15-.92.69s-.04.04-.1.13l-.1.1h-.23c-.61.31-1.07.6-1.38.9l2.27.46ZM410.54,182.81c-.46-1.05-.77-1.58-.92-1.58l-.46-.23-.44.23c0,.61.3.92.9.92l.92.67ZM402.35,186.23c0-.46-.08-.76-.23-.92l-.46-.23h-.9v1.15h1.58ZM401.89,188.96c.61-.61.92-1.14.92-1.58-.61,0-.99-.07-1.15-.23l-.9.67c-.46.46-.61.77-.46.92l1.58.23ZM404.62,188.5c1.21,0,1.81-.38,1.81-1.13h-1.81v1.13ZM424.16,191.46c.15-.15.23-.38.23-.69,0-.59-.3-1.28-.9-2.04-.31.31-.31.61,0,.92,0,.45-.08.74-.23.9h-1.6c.3.46.15.69-.46.69,0,0,.46.16,1.38.46l1.13.23s.03-.07.1-.23c.08-.15.2-.23.35-.23ZM403.27,190.54c1.21.46,2.26.69,3.17.69-.91-.76-1.35-1.15-1.35-1.15-.77,0-1.22.08-1.35.23l-.46.23ZM404.62,191.46l-.9.46,1.35.9.46-.44-.92-.92ZM423.27,192.37v5.21h.67v-5.21h-.67ZM400.31,198.73c-.77-.9-1.6-1.51-2.5-1.81l2.5,1.81ZM402.12,207.35v.46h2.27v-.46h-2.27ZM398.27,210.31c0-.3-.2-.57-.58-.79-.38-.22-.72-.33-1.02-.33l-.44,1.35,2.04-.23ZM392.58,210.31h1.35v-.46h-1.35v.46ZM342.35,213.73c-.29-.46-.67-.84-1.13-1.15-.46-.29-.69-.59-.69-.9-.46.45-.91.67-1.35.67,0,.16-.16.23-.46.23,1.21.16,2.04.54,2.5,1.15h1.13ZM393.04,211.92c-.31.29-.46.44-.46.44h-.23c-.31.16-.46.39-.46.69,0,.46.07.69.23.69h.23c.3.31.69.46,1.15.46.75,0,1.2-.23,1.35-.69v-1.15l-1.81-.44ZM337.58,213.73l.46-.69c.15-.15.23-.38.23-.69h-1.15v.46l.46.92ZM370.99,212.81h-.69v1.15h.69v-1.15ZM338.72,216.46c.59,0,1.13-.07,1.58-.23.92-.3,1.45-.46,1.6-.46l-1.15-.92c-.61-.29-.99-.44-1.15-.44-.29,0-.74.15-1.35.44l-1.15.92c.3.16.53.27.69.35.15.07.15.1,0,.1l.92.23ZM398.04,214.65l-.46,1.13.92.23.44-.92-.9-.44ZM383.27,218.04c-.31,0-.61.12-.92.35-.31.22-.46.49-.46.79l1.6.23v1.13h1.35l.69-.23c-.61-.59-1.29-.9-2.04-.9l.23-.69c0-.15-.16-.38-.46-.69ZM391.66,219.42c0-.15-.07-.23-.21-.23v-.46s-.04-.03-.13-.1c-.07-.08-.1-.13-.1-.13l-1.38.92h1.81ZM337.35,218.73h-.44l.67,1.81h.46l-.69-1.81ZM387.58,221c.3-.3.46-.61.46-.92s-.16-.6-.46-.9h-1.58c.44,1.06.97,1.66,1.58,1.81ZM337.58,221l-.67.69.44.23.69-.92h-.46ZM373.04,221v1.58l1.81-.23-1.81-1.35ZM343.27,221.23v1.13h1.35v-1.13h-1.35ZM385.54,222.12c-.77.46-1.45,1.07-2.04,1.83h1.81l3.42.67v-.44l-.23-.23-.23-.46h-.23l-.23.23-.92.23h-.9l-.46-1.83ZM390.31,225.77c0-.61-.39-1.14-1.15-1.58-.45.6-.52,1.2-.21,1.81h.9l.46-.23ZM384.62,228.27c.46,0,.84.16,1.15.46.75-1.07,1.13-1.67,1.13-1.81l-.23-.92s-.22-.23-.67-.69l-.46.23h-.23l-.13.13-.1.1-.46.23v2.27ZM334.18,226.69h1.13l-.23-.46s-.22-.23-.67-.69v.69l-.23.46ZM391.66,227.58v.69l1.83-.46v-.69l-1.83.46ZM370.08,228.5c-.75.75-1.13,1.28-1.13,1.58l1.13.69,1.38-1.15-1.38-1.13ZM387.58,229.42c0,.45.38.67,1.15.67h.44c.15-.15.23-.45.23-.9v-.69c-1.21,0-1.81.31-1.81.92ZM341.22,228.73l-1.38.46v.44l1.6-.44-.23-.46ZM390.31,231.69c.3-.46.3-.84,0-1.15-.77.31-1.15.69-1.15,1.15h1.15ZM388.27,232.12c0-.44-.23-.74-.69-.9-.75,0-1.13.3-1.13.9h1.81ZM335.99,232.58v1.38h.46v-1.38h-.46ZM368.27,235.08v.92h1.35v-.92h-1.35ZM336.22,235.31c-.16.61-.31,1.15-.46,1.6-.16.45-.31.9-.46,1.35-.16.46-.31.92-.46,1.38-.14.45-.21.9-.21,1.35,0,.31.07.54.21.69.3.29.38.52.23.67-.75.16-.97.61-.67,1.38.29.91.29,1.51,0,1.81,0,0-.16.16-.46.46l-.13.13c-.07.07-.1.1-.1.1-.31.16-.46.38-.46.67,0,.31.07.54.23.69,0,0,.03.12.1.35.08.22-.03.41-.33.56l-.46.23h-.23c.46.75.61,1.35.46,1.81-.6,1.67-.75,2.81-.46,3.42.15.29.19.56.1.79-.07.22-.18.33-.33.33-.29.77-.44,1.68-.44,2.73s.07,1.81.23,2.27c-.46.16-.77.46-.92.92l-.92,1.13v.69c0,2.13-.08,3.56-.23,4.31-.29,1.07-.48,1.95-.56,2.63-.07.68-.1,1.25-.1,1.71s-.08.82-.23,1.13l-.46.92c0,.75.11,1.89.33,3.4.23,1.52.57,2.5,1.02,2.96.92.31,1.98.46,3.19.46l2.96.46v-45.46ZM328.04,243.27v-.69h-1.35v.69h1.35ZM328.04,247.12c-.31-.29-.72-.44-1.25-.44s-.79.15-.79.44l.69.69c.44,0,.9-.23,1.35-.69ZM327.81,249.85c.3,0,.46-.15.46-.46-.91-.29-1.66-.29-2.27,0l1.15.69.67-.23ZM327.81,251.69c-.75-.46-1.13-.92-1.13-1.38l-.23.69c0,.31-.08.54-.23.69h1.58ZM348.04,253.73c0,.6.15,1.2.46,1.81v-2.5l-.46.69ZM325.54,256.23v.67h1.15v-.67h-1.15ZM348.04,258.5l-.23.67c0,.31-.08.46-.23.46.46.77.53,1.15.23,1.15-.16-.15-.27-.19-.35-.1-.07.07-.1.18-.1.33,0,.6.07,1.09.23,1.48.15.38.38.87.69,1.48l.23-7.73-.46,2.27ZM325.31,265.77l-.67.23v.23l.9-.23-.23-.23ZM356.45,283.94h-.46l.23.69h.46l-.23-.69Z"/>
  </g>
</svg>