<?xml version="1.0" standalone="no"?>
<!DOCTYPE svg PUBLIC "-//W3C//DTD SVG 20010904//EN"
 "http://www.w3.org/TR/2001/REC-SVG-20010904/DTD/svg10.dtd">
<svg version="1.0" xmlns="http://www.w3.org/2000/svg"
 width="1024.000000pt" height="1024.000000pt" viewBox="0 0 1024.000000 1024.000000"
 preserveAspectRatio="xMidYMid meet">

<g transform="translate(0.000000,1024.000000) scale(0.100000,-0.100000)"
fill="#000000" stroke="none">
<path d="M0 5120 l0 -5120 5120 0 5120 0 0 5120 0 5120 -5120 0 -5120 0 0
-5120z m5410 3275 c203 -44 394 -129 557 -246 110 -80 261 -229 341 -337 57
-77 151 -248 164 -299 6 -22 11 -23 100 -23 124 0 201 -14 338 -59 208 -70
304 -125 478 -273 116 -99 237 -250 299 -373 28 -55 81 -216 99 -298 22 -107
19 -375 -6 -498 -38 -186 -112 -346 -239 -517 -183 -246 -488 -427 -830 -492
-105 -20 -127 -21 -564 -13 l-456 8 -5 -29 c-3 -16 -6 -147 -6 -292 l0 -264
-81 0 -80 0 3 389 3 388 210 7 c116 4 365 11 555 15 377 9 419 15 584 81 239
95 378 206 517 413 123 184 168 315 176 518 6 145 -4 223 -48 355 -92 279
-300 498 -593 621 -150 64 -238 84 -392 92 -158 7 -174 13 -225 84 -17 23 -46
75 -65 116 -57 123 -141 238 -264 362 -132 132 -216 191 -363 254 -332 143
-682 137 -1016 -16 -230 -106 -463 -329 -594 -568 -49 -90 -109 -159 -155
-178 -18 -8 -88 -25 -155 -38 -331 -67 -530 -161 -695 -327 -147 -149 -237
-296 -284 -465 -19 -66 -22 -103 -22 -248 1 -155 3 -178 28 -260 57 -190 150
-348 283 -481 126 -125 231 -189 408 -251 145 -50 179 -54 600 -63 508 -12
674 -22 686 -41 5 -8 9 -182 9 -386 l0 -373 -74 0 -75 0 -6 43 c-3 23 -5 153
-3 289 l3 247 -490 -2 -490 -2 -105 27 c-272 71 -460 179 -655 373 -324 323
-437 831 -289 1290 66 204 233 425 434 574 232 174 447 255 699 267 l95 4 41
92 c51 115 99 187 207 308 113 126 186 193 293 266 176 120 404 212 603 244
90 14 424 4 512 -15z m-175 -530 c113 -32 230 -127 282 -228 56 -111 65 -268
22 -381 -51 -136 -219 -285 -321 -286 -15 0 -30 -5 -33 -11 -4 -6 -4 -110 0
-232 l7 -222 292 3 c160 2 339 -1 399 -5 l107 -9 0 116 c0 63 3 125 6 137 5
17 0 22 -26 28 -48 11 -113 81 -139 151 -43 114 -23 213 62 298 124 123 279
126 391 6 65 -69 86 -119 86 -205 0 -81 -21 -135 -68 -180 -39 -37 -110 -75
-138 -75 -19 0 -22 -7 -28 -71 -4 -39 -4 -116 0 -171 l7 -100 86 8 c47 4 120
7 162 7 l76 -1 31 81 c41 108 91 159 177 182 188 49 441 29 525 -41 72 -61
111 -148 131 -292 29 -206 -54 -405 -199 -478 -34 -17 -89 -37 -122 -44 -85
-18 -229 -8 -303 21 -68 26 -147 93 -183 154 -29 50 -56 171 -53 232 2 24 -1
47 -6 52 -6 4 -74 13 -151 19 -88 6 -152 16 -171 25 -25 13 -114 16 -623 16
-327 1 -770 3 -985 5 l-390 3 -115 -28 c-83 -21 -152 -31 -252 -35 -119 -6
-138 -9 -138 -24 0 -87 -85 -203 -188 -258 -52 -28 -70 -32 -136 -32 -106 0
-169 25 -235 95 -69 72 -93 128 -94 219 -2 62 2 80 30 136 81 166 232 235 403
184 62 -18 143 -93 173 -159 l18 -40 227 3 c125 2 228 4 228 5 1 1 4 74 7 163
l5 160 -43 12 c-60 16 -113 65 -147 137 -33 71 -37 140 -11 222 22 71 62 116
130 148 154 73 302 24 376 -125 32 -63 37 -158 12 -217 -24 -57 -80 -119 -130
-143 l-45 -22 0 -128 0 -128 193 -6 c105 -3 290 -8 410 -11 l217 -5 0 108 c0
59 -3 164 -7 234 -6 126 -6 126 -32 131 -112 23 -214 95 -282 199 -53 82 -72
164 -67 281 3 82 8 103 37 162 62 125 204 239 331 264 54 11 146 5 215 -14z
m863 -1651 c19 -4 22 -10 22 -58 0 -29 3 -100 6 -157 l7 -104 29 -2 c35 -3
103 -41 135 -75 64 -68 87 -213 50 -310 -37 -96 -154 -172 -262 -171 -111 2
-196 57 -247 160 -45 91 -46 171 -5 255 30 62 100 128 134 128 20 0 21 4 16
88 -3 48 -7 89 -9 91 -2 2 -189 2 -416 0 -227 -2 -621 -2 -875 -1 l-463 3 0
-88 0 -88 49 -22 c123 -54 180 -252 108 -376 -61 -103 -164 -164 -261 -154
-148 15 -256 137 -256 289 0 55 5 77 33 129 39 77 102 129 153 129 l34 0 -5
103 c-3 56 -8 127 -10 158 l-4 56 77 7 c42 4 356 10 696 12 341 2 622 7 625
10 7 6 603 -4 639 -12z m-851 -349 c177 -103 218 -321 84 -455 -26 -26 -68
-55 -95 -65 l-48 -18 8 -422 c4 -231 4 -442 0 -468 l-7 -47 -75 0 -74 0 0 469
0 469 -35 6 c-49 10 -137 93 -165 157 -66 155 20 342 183 395 66 22 166 12
224 -21z m-2361 -1136 c17 -10 42 -35 57 -55 l26 -37 436 0 436 1 35 41 c20
23 49 48 65 56 76 40 191 -3 235 -87 37 -72 3 -199 -67 -246 -29 -20 -44 -23
-95 -20 -71 4 -121 33 -151 85 l-19 33 -435 3 -435 2 -26 -41 c-29 -47 -95
-84 -149 -84 -56 0 -134 43 -165 90 -104 156 92 357 252 259z m4663 11 c47
-24 108 -92 116 -131 24 -109 -75 -229 -188 -229 -71 0 -155 64 -186 141 l-10
24 0 -23 -1 -23 -435 3 -434 3 -5 -21 c-16 -62 -135 -122 -209 -105 -82 19
-138 83 -145 166 -6 70 23 124 92 168 89 57 177 37 245 -56 l24 -32 256 8
c280 9 600 2 615 -13 5 -5 20 8 39 37 37 56 108 103 154 103 19 0 51 -9 72
-20z m321 -465 c47 -24 73 -77 73 -150 0 -49 -5 -70 -23 -94 -60 -86 -184 -79
-240 11 -27 43 -43 105 -36 134 8 29 63 93 90 104 34 14 105 11 136 -5z
m-4262 -240 c67 -16 153 -56 242 -113 61 -39 190 -159 190 -177 0 -6 -28 -34
-62 -62 -35 -28 -81 -70 -103 -92 -21 -23 -43 -41 -47 -41 -5 0 -22 15 -38 34
-42 48 -165 129 -235 156 -55 21 -74 23 -235 22 -208 -2 -257 -13 -331 -75
-72 -58 -110 -130 -117 -216 -9 -136 52 -244 175 -306 l58 -30 255 -6 c278 -7
300 -11 415 -78 104 -60 208 -177 254 -284 34 -79 54 -201 49 -292 -13 -199
-161 -409 -348 -492 -103 -47 -174 -55 -415 -50 -299 6 -357 23 -573 170 -57
38 -121 87 -143 108 l-40 38 43 39 c24 21 79 70 123 109 l80 69 53 -57 c72
-79 173 -145 250 -164 50 -13 105 -16 270 -13 205 3 207 3 254 30 146 86 201
263 128 408 -24 47 -96 112 -162 147 -52 27 -56 27 -298 34 -142 4 -262 12
-285 19 -153 46 -312 175 -377 307 -64 128 -74 296 -27 449 27 90 60 146 128
218 104 110 238 179 381 196 120 14 420 11 488 -5z m2248 -37 c-3 -29 -6 -98
-6 -153 l0 -101 -590 4 -590 4 0 -189 c0 -105 -3 -217 -6 -249 l-6 -60 -72 8
c-39 4 -96 7 -127 7 l-56 1 -7 61 c-8 79 -8 297 1 527 l6 182 661 3 c364 1
692 3 730 5 l69 2 -7 -52z m1364 31 c25 -5 83 -28 130 -51 151 -73 266 -209
316 -374 25 -82 25 -276 0 -359 -57 -190 -215 -356 -396 -417 -62 -21 -86 -23
-492 -28 -234 -3 -429 -7 -431 -10 -8 -8 48 -163 77 -212 l26 -45 -1 -283 c0
-156 -3 -289 -6 -297 -4 -10 -35 -13 -133 -13 l-127 0 -5 148 c-3 81 -4 453
-2 827 2 374 4 780 4 903 l0 222 498 0 c302 0 515 -4 542 -11z m-1432 -1040
l3 -140 -613 6 c-337 3 -648 5 -690 5 l-77 0 5 67 c4 43 0 90 -9 130 -8 34
-12 64 -9 67 3 3 316 6 696 6 l691 0 3 -141z m-1118 -544 l0 -215 488 -1 c268
-1 494 0 502 1 8 1 57 -1 107 -5 l93 -7 0 -144 0 -144 -617 0 c-340 0 -669 3
-730 7 l-113 6 0 343 c0 188 3 349 6 358 5 13 27 16 135 16 l129 0 0 -215z"/>
<!-- <path d="M5017 7725 c-93 -34 -184 -131 -208 -219 -28 -104 13 -251 88 -317
53 -46 138 -82 205 -87 48 -4 67 1 120 25 80 38 124 81 162 162 35 77 39 152
12 243 -44 150 -234 246 -379 193z m136 -128 c45 -19 105 -89 113 -131 9 -49
-2 -115 -27 -154 -70 -117 -277 -51 -305 96 -18 94 68 196 169 201 10 1 32 -5
50 -12z"/> -->
<!-- <path d="M4060 7154 c-59 -51 -74 -107 -43 -171 44 -93 177 -98 232 -10 43 70
19 155 -52 188 -59 26 -99 24 -137 -7z"/> -->
<!-- <path d="M6000 7131 c-41 -43 -54 -83 -41 -129 21 -73 59 -102 133 -102 113 0
173 118 108 210 -28 40 -69 60 -121 60 -36 0 -48 -6 -79 -39z"/> -->
<!-- <path d="M6648 6298 l-3 -293 260 0 260 0 5 105 c3 58 4 189 2 293 l-4 187
-258 0 -259 0 -3 -292z m424 164 c2 -16 2 -99 0 -185 l-4 -157 -155 0 -154 0
3 48 3 47 49 -3 c27 -2 68 -1 92 3 40 6 44 9 54 46 8 27 8 45 0 58 -7 14 -7
22 0 26 6 4 8 10 5 15 -3 5 3 11 12 13 10 3 -25 5 -77 6 -106 1 -133 -7 -108
-33 15 -14 15 -20 0 -65 l-17 -50 -7 82 c-3 45 -6 103 -7 130 l-1 47 154 0
154 0 4 -28z"/> -->
<!-- <path d="M3224 6481 c-117 -71 -126 -241 -17 -316 31 -21 49 -25 105 -25 61 0
71 3 103 32 76 66 95 156 50 234 -50 85 -166 121 -241 75z"/> -->
<!-- <path d="M6024 5752 c-72 -45 -97 -110 -69 -180 25 -62 66 -92 124 -92 65 0
109 31 135 93 18 44 19 51 6 89 -30 84 -131 130 -196 90z"/> -->
<!-- <path d="M4062 5735 c-80 -65 -83 -173 -6 -234 41 -32 85 -36 138 -13 78 35
107 115 68 191 -24 48 -62 73 -119 78 -41 3 -53 0 -81 -22z"/> -->
<!-- <path d="M5042 5740 c-44 -27 -72 -76 -72 -128 0 -146 168 -206 263 -93 38 45
43 94 15 149 -42 86 -132 117 -206 72z"/> -->
<!-- <path d="M7719 4230 c-63 -52 -59 -131 11 -194 54 -49 98 -50 146 -2 29 29 34
41 34 81 0 52 -10 77 -48 118 -37 39 -94 38 -143 -3z m71 -9 c0 -6 -4 -13 -10
-16 -5 -3 -10 -19 -10 -34 0 -24 4 -28 25 -28 34 0 39 11 19 42 -19 29 -11 45
14 28 13 -8 17 -24 16 -71 -2 -65 -8 -82 -28 -82 -9 0 -12 9 -9 24 4 18 -1 27
-17 36 -22 12 -22 11 -18 -24 6 -49 -17 -48 -26 2 -12 72 -7 120 12 125 28 8
32 7 32 -2z"/> -->
<path d="M6601 3753 l-173 -3 7 -28 c4 -15 9 -159 10 -320 1 -161 4 -294 6
-296 2 -2 162 -6 354 -8 l350 -3 57 28 c129 64 193 170 186 307 -8 140 -85
254 -204 301 -53 21 -76 23 -239 24 -99 1 -258 0 -354 -2z"/>
</g>
</svg>
